<mxfile host="app.diagrams.net" modified="2023-05-22T11:35:40.932Z" agent="Mozilla/5.0 (Windows NT 10.0; Win64; x64) AppleWebKit/537.36 (KHTML, like Gecko) Chrome/112.0.0.0 Safari/537.36 OPR/98.0.0.0" version="21.1.5" etag="duK0prrpaM2hPrkt-LMn" type="github">
  <diagram name="Page-1" id="pVCz_EUvdrI7t1QcdYik">
    <mxGraphModel>
      <root>
        <mxCell id="0" />
        <mxCell id="1" parent="0" />
      </root>
    </mxGraphModel>
  </diagram>
</mxfile>
